{
	"asset":{
		"generator":"Khronos glTF Blender I/O v4.0.44",
		"version":"2.0"
	},
	"scene":0,
	"scenes":[
		{
			"name":"Scene",
			"nodes":[
				0,
				1,
				2,
				3
			]
		}
	],
	"nodes":[
		{
			"mesh":0,
			"name":"Cube",
			"translation":[
				0,
				4.649420738220215,
				0
			]
		},
		{
			"mesh":1,
			"name":"Cube.001",
			"scale":[
				0.9548472762107849,
				1.0204415321350098,
				0.9595769643783569
			],
			"translation":[
				0,
				6.501098155975342,
				0.2127337008714676
			]
		},
		{
			"mesh":2,
			"name":"Cube.002",
			"scale":[
				0.7685101628303528,
				0.7685101628303528,
				0.7685101628303528
			],
			"translation":[
				0,
				2.5907680988311768,
				0
			]
		},
		{
			"mesh":3,
			"name":"Cylinder",
			"rotation":[
				0,
				0,
				-0.39789530634880066,
				0.9174309372901917
			],
			"scale":[
				0.29434916377067566,
				0.927402138710022,
				0.29434919357299805
			],
			"translation":[
				-1.447162389755249,
				2.2406046390533447,
				0
			]
		}
	],
	"materials":[
		{
			"doubleSided":true,
			"name":"Skin",
			"pbrMetallicRoughness":{
				"baseColorFactor":[
					0.8003851175308228,
					0.515190064907074,
					0.6324793100357056,
					1
				],
				"metallicFactor":0,
				"roughnessFactor":0.5
			}
		},
		{
			"doubleSided":true,
			"name":"Hair",
			"pbrMetallicRoughness":{
				"baseColorFactor":[
					0.8000074625015259,
					0.19878272712230682,
					0.08006663620471954,
					1
				],
				"metallicFactor":0,
				"roughnessFactor":0.5
			}
		},
		{
			"doubleSided":true,
			"name":"Eye Centre",
			"pbrMetallicRoughness":{
				"baseColorFactor":[
					0,
					0,
					0,
					1
				],
				"metallicFactor":0,
				"roughnessFactor":0.5
			}
		},
		{
			"doubleSided":true,
			"name":"Eye Outer",
			"pbrMetallicRoughness":{
				"baseColorFactor":[
					0.800000011920929,
					0.800000011920929,
					0.800000011920929,
					1
				],
				"metallicFactor":0,
				"roughnessFactor":0.5
			}
		},
		{
			"doubleSided":true,
			"name":"Mouth",
			"pbrMetallicRoughness":{
				"baseColorFactor":[
					0.18867948651313782,
					0.012052071280777454,
					0.013900235295295715,
					1
				],
				"metallicFactor":0,
				"roughnessFactor":0.5
			}
		},
		{
			"doubleSided":true,
			"name":"T-Shirt",
			"pbrMetallicRoughness":{
				"baseColorFactor":[
					0,
					0,
					0,
					1
				],
				"metallicFactor":0,
				"roughnessFactor":0.5
			}
		},
		{
			"doubleSided":true,
			"name":"Jeans",
			"pbrMetallicRoughness":{
				"baseColorFactor":[
					0,
					0.012033077888190746,
					0.18867948651313782,
					1
				],
				"metallicFactor":0,
				"roughnessFactor":0.5
			}
		}
	],
	"meshes":[
		{
			"name":"Cube.001",
			"primitives":[
				{
					"attributes":{
						"POSITION":0,
						"NORMAL":1,
						"TEXCOORD_0":2
					},
					"indices":3,
					"material":0
				},
				{
					"attributes":{
						"POSITION":4,
						"NORMAL":5,
						"TEXCOORD_0":6
					},
					"indices":7,
					"material":1
				},
				{
					"attributes":{
						"POSITION":8,
						"NORMAL":9,
						"TEXCOORD_0":10
					},
					"indices":11,
					"material":2
				},
				{
					"attributes":{
						"POSITION":12,
						"NORMAL":13,
						"TEXCOORD_0":14
					},
					"indices":15,
					"material":3
				},
				{
					"attributes":{
						"POSITION":16,
						"NORMAL":17,
						"TEXCOORD_0":18
					},
					"indices":19,
					"material":4
				}
			]
		},
		{
			"name":"Cube.002",
			"primitives":[
				{
					"attributes":{
						"POSITION":20,
						"NORMAL":21,
						"TEXCOORD_0":22
					},
					"indices":23,
					"material":1
				}
			]
		},
		{
			"name":"Cube.004",
			"primitives":[
				{
					"attributes":{
						"POSITION":24,
						"NORMAL":25,
						"TEXCOORD_0":26
					},
					"indices":27,
					"material":5
				},
				{
					"attributes":{
						"POSITION":28,
						"NORMAL":29,
						"TEXCOORD_0":30
					},
					"indices":31,
					"material":0
				},
				{
					"attributes":{
						"POSITION":32,
						"NORMAL":33,
						"TEXCOORD_0":34
					},
					"indices":35,
					"material":6
				}
			]
		},
		{
			"name":"Cylinder",
			"primitives":[
				{
					"attributes":{
						"POSITION":36,
						"NORMAL":37,
						"TEXCOORD_0":38
					},
					"indices":39,
					"material":5
				},
				{
					"attributes":{
						"POSITION":40,
						"NORMAL":41,
						"TEXCOORD_0":42
					},
					"indices":43,
					"material":0
				}
			]
		}
	],
	"accessors":[
		{
			"bufferView":0,
			"componentType":5126,
			"count":272,
			"max":[
				1,
				1,
				1
			],
			"min":[
				-1,
				-1,
				-1
			],
			"type":"VEC3"
		},
		{
			"bufferView":1,
			"componentType":5126,
			"count":272,
			"type":"VEC3"
		},
		{
			"bufferView":2,
			"componentType":5126,
			"count":272,
			"type":"VEC2"
		},
		{
			"bufferView":3,
			"componentType":5123,
			"count":852,
			"type":"SCALAR"
		},
		{
			"bufferView":4,
			"componentType":5126,
			"count":40,
			"max":[
				0.8807339668273926,
				0.6088703274726868,
				1.0391013622283936
			],
			"min":[
				-0.8807339668273926,
				0.44425147771835327,
				1
			],
			"type":"VEC3"
		},
		{
			"bufferView":5,
			"componentType":5126,
			"count":40,
			"type":"VEC3"
		},
		{
			"bufferView":6,
			"componentType":5126,
			"count":40,
			"type":"VEC2"
		},
		{
			"bufferView":7,
			"componentType":5123,
			"count":60,
			"type":"SCALAR"
		},
		{
			"bufferView":8,
			"componentType":5126,
			"count":120,
			"max":[
				0.5136464834213257,
				0.19250068068504333,
				0.986487627029419
			],
			"min":[
				-0.5136464834213257,
				-0.256011039018631,
				0.9795956611633301
			],
			"type":"VEC3"
		},
		{
			"bufferView":9,
			"componentType":5126,
			"count":120,
			"type":"VEC3"
		},
		{
			"bufferView":10,
			"componentType":5126,
			"count":120,
			"type":"VEC2"
		},
		{
			"bufferView":11,
			"componentType":5123,
			"count":204,
			"type":"SCALAR"
		},
		{
			"bufferView":12,
			"componentType":5126,
			"count":144,
			"max":[
				0.6724908351898193,
				0.34484508633613586,
				0.9795957207679749
			],
			"min":[
				-0.6724908351898193,
				-0.29973897337913513,
				0.9454602599143982
			],
			"type":"VEC3"
		},
		{
			"bufferView":13,
			"componentType":5126,
			"count":144,
			"type":"VEC3"
		},
		{
			"bufferView":14,
			"componentType":5126,
			"count":144,
			"type":"VEC2"
		},
		{
			"bufferView":15,
			"componentType":5123,
			"count":288,
			"type":"SCALAR"
		},
		{
			"bufferView":16,
			"componentType":5126,
			"count":6,
			"max":[
				0.41442498564720154,
				-0.664651095867157,
				0.9560068249702454
			],
			"min":[
				-0.41442498564720154,
				-0.8741397857666016,
				0.9560068249702454
			],
			"type":"VEC3"
		},
		{
			"bufferView":17,
			"componentType":5126,
			"count":6,
			"type":"VEC3"
		},
		{
			"bufferView":18,
			"componentType":5126,
			"count":6,
			"type":"VEC2"
		},
		{
			"bufferView":19,
			"componentType":5123,
			"count":12,
			"type":"SCALAR"
		},
		{
			"bufferView":20,
			"componentType":5126,
			"count":153,
			"max":[
				1.3735480308532715,
				-0.6005292534828186,
				1
			],
			"min":[
				-1.3825170993804932,
				-2.7452754974365234,
				-1.4006623029708862
			],
			"type":"VEC3"
		},
		{
			"bufferView":21,
			"componentType":5126,
			"count":153,
			"type":"VEC3"
		},
		{
			"bufferView":22,
			"componentType":5126,
			"count":153,
			"type":"VEC2"
		},
		{
			"bufferView":23,
			"componentType":5123,
			"count":288,
			"type":"SCALAR"
		},
		{
			"bufferView":24,
			"componentType":5126,
			"count":146,
			"max":[
				1.4156461954116821,
				1.4926775693893433,
				1.1591850519180298
			],
			"min":[
				-1.4156461954116821,
				-3.357267141342163,
				-1.1591850519180298
			],
			"type":"VEC3"
		},
		{
			"bufferView":25,
			"componentType":5126,
			"count":146,
			"type":"VEC3"
		},
		{
			"bufferView":26,
			"componentType":5126,
			"count":146,
			"type":"VEC2"
		},
		{
			"bufferView":27,
			"componentType":5123,
			"count":264,
			"type":"SCALAR"
		},
		{
			"bufferView":28,
			"componentType":5126,
			"count":40,
			"max":[
				1,
				1.4926775693893433,
				1
			],
			"min":[
				-1,
				0.8911541104316711,
				-1
			],
			"type":"VEC3"
		},
		{
			"bufferView":29,
			"componentType":5126,
			"count":40,
			"type":"VEC3"
		},
		{
			"bufferView":30,
			"componentType":5126,
			"count":40,
			"type":"VEC2"
		},
		{
			"bufferView":31,
			"componentType":5123,
			"count":72,
			"type":"SCALAR"
		},
		{
			"bufferView":32,
			"componentType":5126,
			"count":86,
			"max":[
				1.0082993507385254,
				-1.7101409435272217,
				1.0082993507385254
			],
			"min":[
				-1.0082993507385254,
				-3.0698418617248535,
				-1.0082993507385254
			],
			"type":"VEC3"
		},
		{
			"bufferView":33,
			"componentType":5126,
			"count":86,
			"type":"VEC3"
		},
		{
			"bufferView":34,
			"componentType":5126,
			"count":86,
			"type":"VEC2"
		},
		{
			"bufferView":35,
			"componentType":5123,
			"count":168,
			"type":"SCALAR"
		},
		{
			"bufferView":36,
			"componentType":5126,
			"count":208,
			"max":[
				9.071464538574219,
				2.795877456665039,
				1
			],
			"min":[
				-1.6715494394302368,
				-0.7646729350090027,
				-1
			],
			"type":"VEC3"
		},
		{
			"bufferView":37,
			"componentType":5126,
			"count":208,
			"type":"VEC3"
		},
		{
			"bufferView":38,
			"componentType":5126,
			"count":208,
			"type":"VEC2"
		},
		{
			"bufferView":39,
			"componentType":5123,
			"count":324,
			"type":"SCALAR"
		},
		{
			"bufferView":40,
			"componentType":5126,
			"count":80,
			"max":[
				10.217961311340332,
				2.5781960487365723,
				0.8520582318305969
			],
			"min":[
				-0.786819338798523,
				-1.1134344339370728,
				-0.8520582318305969
			],
			"type":"VEC3"
		},
		{
			"bufferView":41,
			"componentType":5126,
			"count":80,
			"type":"VEC3"
		},
		{
			"bufferView":42,
			"componentType":5126,
			"count":80,
			"type":"VEC2"
		},
		{
			"bufferView":43,
			"componentType":5123,
			"count":132,
			"type":"SCALAR"
		}
	],
	"bufferViews":[
		{
			"buffer":0,
			"byteLength":3264,
			"byteOffset":0,
			"target":34962
		},
		{
			"buffer":0,
			"byteLength":3264,
			"byteOffset":3264,
			"target":34962
		},
		{
			"buffer":0,
			"byteLength":2176,
			"byteOffset":6528,
			"target":34962
		},
		{
			"buffer":0,
			"byteLength":1704,
			"byteOffset":8704,
			"target":34963
		},
		{
			"buffer":0,
			"byteLength":480,
			"byteOffset":10408,
			"target":34962
		},
		{
			"buffer":0,
			"byteLength":480,
			"byteOffset":10888,
			"target":34962
		},
		{
			"buffer":0,
			"byteLength":320,
			"byteOffset":11368,
			"target":34962
		},
		{
			"buffer":0,
			"byteLength":120,
			"byteOffset":11688,
			"target":34963
		},
		{
			"buffer":0,
			"byteLength":1440,
			"byteOffset":11808,
			"target":34962
		},
		{
			"buffer":0,
			"byteLength":1440,
			"byteOffset":13248,
			"target":34962
		},
		{
			"buffer":0,
			"byteLength":960,
			"byteOffset":14688,
			"target":34962
		},
		{
			"buffer":0,
			"byteLength":408,
			"byteOffset":15648,
			"target":34963
		},
		{
			"buffer":0,
			"byteLength":1728,
			"byteOffset":16056,
			"target":34962
		},
		{
			"buffer":0,
			"byteLength":1728,
			"byteOffset":17784,
			"target":34962
		},
		{
			"buffer":0,
			"byteLength":1152,
			"byteOffset":19512,
			"target":34962
		},
		{
			"buffer":0,
			"byteLength":576,
			"byteOffset":20664,
			"target":34963
		},
		{
			"buffer":0,
			"byteLength":72,
			"byteOffset":21240,
			"target":34962
		},
		{
			"buffer":0,
			"byteLength":72,
			"byteOffset":21312,
			"target":34962
		},
		{
			"buffer":0,
			"byteLength":48,
			"byteOffset":21384,
			"target":34962
		},
		{
			"buffer":0,
			"byteLength":24,
			"byteOffset":21432,
			"target":34963
		},
		{
			"buffer":0,
			"byteLength":1836,
			"byteOffset":21456,
			"target":34962
		},
		{
			"buffer":0,
			"byteLength":1836,
			"byteOffset":23292,
			"target":34962
		},
		{
			"buffer":0,
			"byteLength":1224,
			"byteOffset":25128,
			"target":34962
		},
		{
			"buffer":0,
			"byteLength":576,
			"byteOffset":26352,
			"target":34963
		},
		{
			"buffer":0,
			"byteLength":1752,
			"byteOffset":26928,
			"target":34962
		},
		{
			"buffer":0,
			"byteLength":1752,
			"byteOffset":28680,
			"target":34962
		},
		{
			"buffer":0,
			"byteLength":1168,
			"byteOffset":30432,
			"target":34962
		},
		{
			"buffer":0,
			"byteLength":528,
			"byteOffset":31600,
			"target":34963
		},
		{
			"buffer":0,
			"byteLength":480,
			"byteOffset":32128,
			"target":34962
		},
		{
			"buffer":0,
			"byteLength":480,
			"byteOffset":32608,
			"target":34962
		},
		{
			"buffer":0,
			"byteLength":320,
			"byteOffset":33088,
			"target":34962
		},
		{
			"buffer":0,
			"byteLength":144,
			"byteOffset":33408,
			"target":34963
		},
		{
			"buffer":0,
			"byteLength":1032,
			"byteOffset":33552,
			"target":34962
		},
		{
			"buffer":0,
			"byteLength":1032,
			"byteOffset":34584,
			"target":34962
		},
		{
			"buffer":0,
			"byteLength":688,
			"byteOffset":35616,
			"target":34962
		},
		{
			"buffer":0,
			"byteLength":336,
			"byteOffset":36304,
			"target":34963
		},
		{
			"buffer":0,
			"byteLength":2496,
			"byteOffset":36640,
			"target":34962
		},
		{
			"buffer":0,
			"byteLength":2496,
			"byteOffset":39136,
			"target":34962
		},
		{
			"buffer":0,
			"byteLength":1664,
			"byteOffset":41632,
			"target":34962
		},
		{
			"buffer":0,
			"byteLength":648,
			"byteOffset":43296,
			"target":34963
		},
		{
			"buffer":0,
			"byteLength":960,
			"byteOffset":43944,
			"target":34962
		},
		{
			"buffer":0,
			"byteLength":960,
			"byteOffset":44904,
			"target":34962
		},
		{
			"buffer":0,
			"byteLength":640,
			"byteOffset":45864,
			"target":34962
		},
		{
			"buffer":0,
			"byteLength":264,
			"byteOffset":46504,
			"target":34963
		}
	],
	"buffers":[
		{
			"byteLength":46768,
			"uri":"me.bin"
		}
	]
}
