{
	"asset":{
		"generator":"Khronos glTF Blender I/O v4.0.44",
		"version":"2.0"
	},
	"scene":0,
	"scenes":[
		{
			"name":"Scene",
			"nodes":[
				0,
				1
			]
		}
	],
	"nodes":[
		{
			"name":"Empty",
			"rotation":[
				0.70710688829422,
				0,
				0,
				0.7071066498756409
			],
			"translation":[
				1.5189021825790405,
				2.5156686305999756,
				3.1442723274230957
			]
		},
		{
			"mesh":0,
			"name":"Cube",
			"scale":[
				0.3829258680343628,
				0.3829258680343628,
				0.3829258680343628
			],
			"translation":[
				0,
				2.0227885246276855,
				0.03043065220117569
			]
		}
	],
	"materials":[
		{
			"doubleSided":true,
			"name":"Material",
			"pbrMetallicRoughness":{
				"baseColorFactor":[
					1,
					0,
					0.019953634589910507,
					1
				]
			}
		}
	],
	"meshes":[
		{
			"name":"Cube.002",
			"primitives":[
				{
					"attributes":{
						"POSITION":0,
						"NORMAL":1,
						"TEXCOORD_0":2
					},
					"indices":3,
					"material":0
				}
			]
		}
	],
	"accessors":[
		{
			"bufferView":0,
			"componentType":5126,
			"count":1551,
			"max":[
				1.4051165580749512,
				6.235846519470215,
				0.9364094138145447
			],
			"min":[
				-1.4051165580749512,
				-3.6060614585876465,
				-0.9818533658981323
			],
			"type":"VEC3"
		},
		{
			"bufferView":1,
			"componentType":5126,
			"count":1551,
			"type":"VEC3"
		},
		{
			"bufferView":2,
			"componentType":5126,
			"count":1551,
			"type":"VEC2"
		},
		{
			"bufferView":3,
			"componentType":5123,
			"count":3222,
			"type":"SCALAR"
		}
	],
	"bufferViews":[
		{
			"buffer":0,
			"byteLength":18612,
			"byteOffset":0,
			"target":34962
		},
		{
			"buffer":0,
			"byteLength":18612,
			"byteOffset":18612,
			"target":34962
		},
		{
			"buffer":0,
			"byteLength":12408,
			"byteOffset":37224,
			"target":34962
		},
		{
			"buffer":0,
			"byteLength":6444,
			"byteOffset":49632,
			"target":34963
		}
	],
	"buffers":[
		{
			"byteLength":56076,
			"uri":"me.bin"
		}
	]
}
